# Unit cube (matches skybox.staticmesh)
# 8 positions, 14 UVs, 6 normals, 12 triangles
o Cube
g Cube

# Positions
v  1  1  1
v  1 -1  1
v  1  1 -1
v  1 -1 -1
v -1  1 -1
v -1 -1 -1
v -1  1  1
v -1 -1  1

# UVs
vt 0.375 1
vt 0.625 1
vt 0.375 0.75
vt 0.625 0.75
vt 0.375 0.5
vt 0.625 0.5
vt 0.375 0.25
vt 0.625 0.25
vt 0.375 0
vt 0.625 0
vt 0.875 1
vt 0.875 0.75
vt 0.125 1
vt 0.125 0.75

# Normals
vn  1  0  0
vn  0  0 -1
vn -1  0  0
vn  0  0  1
vn  0 -1  0
vn  0  1  0

# Faces: v/vt/vn
# +X face
f 1/1/1  2/2/1  3/3/1
f 3/3/1  2/2/1  4/4/1
# -Z face
f 3/3/2  4/4/2  5/5/2
f 5/5/2  4/4/2  6/6/2
# -X face
f 5/5/3  6/6/3  7/7/3
f 7/7/3  6/6/3  8/8/3
# +Z face
f 7/7/4  8/8/4  1/9/4
f 1/9/4  8/8/4  2/10/4
# -Y face
f 2/2/5  8/11/5  4/4/5
f 4/4/5  8/11/5  6/12/5
# +Y face
f 7/13/6  1/1/6  5/14/6
f 5/14/6  1/1/6  3/3/6
